<svg width="177" height="50" viewBox="0 0 177 50" fill="none" xmlns="http://www.w3.org/2000/svg">
<g clip-path="url(#clip0_6201_1210)">
<path d="M63.375 36.75V12H68.235V32.49H77.175V36.75H63.375Z" fill="white"/>
<path d="M87.8485 37.23C86.1885 37.23 84.6985 36.875 83.3785 36.165C82.0685 35.445 81.0285 34.47 80.2585 33.24C79.4885 32.01 79.1035 30.62 79.1035 29.07C79.1035 27.93 79.3185 26.865 79.7485 25.875C80.1885 24.885 80.7985 24.02 81.5785 23.28C82.3585 22.53 83.2635 21.95 84.2935 21.54C85.3235 21.12 86.4385 20.91 87.6385 20.91C89.2385 20.91 90.6385 21.245 91.8385 21.915C93.0485 22.575 93.9885 23.495 94.6585 24.675C95.3385 25.855 95.6785 27.23 95.6785 28.8C95.6785 28.93 95.6735 29.045 95.6635 29.145C95.6635 29.235 95.6485 29.41 95.6185 29.67H83.8435C83.8435 30.45 84.0185 31.13 84.3685 31.71C84.7285 32.29 85.2285 32.745 85.8685 33.075C86.5085 33.395 87.2535 33.555 88.1035 33.555C88.9035 33.555 89.6085 33.4 90.2185 33.09C90.8385 32.78 91.4335 32.285 92.0035 31.605L95.3185 33.27C94.5985 34.51 93.5785 35.48 92.2585 36.18C90.9385 36.88 89.4685 37.23 87.8485 37.23ZM84.0085 27.12H91.1485C91.0485 26.53 90.8335 26.02 90.5035 25.59C90.1835 25.16 89.7735 24.83 89.2735 24.6C88.7735 24.37 88.2085 24.255 87.5785 24.255C86.9085 24.255 86.3185 24.37 85.8085 24.6C85.2985 24.83 84.8885 25.16 84.5785 25.59C84.2685 26.02 84.0785 26.53 84.0085 27.12Z" fill="white"/>
<path d="M106.094 37.23C104.684 37.23 103.399 36.88 102.239 36.18C101.089 35.47 100.174 34.5 99.4933 33.27C98.8233 32.03 98.4883 30.62 98.4883 29.04C98.4883 27.5 98.8133 26.12 99.4633 24.9C100.114 23.67 101.009 22.7 102.149 21.99C103.299 21.27 104.614 20.91 106.094 20.91C107.184 20.91 108.199 21.12 109.139 21.54C110.089 21.95 110.864 22.525 111.464 23.265V21.39H116.069V36.75H111.464V34.725C110.764 35.535 109.959 36.155 109.049 36.585C108.139 37.015 107.154 37.23 106.094 37.23ZM107.459 33.315C108.259 33.315 108.969 33.135 109.589 32.775C110.209 32.405 110.694 31.9 111.044 31.26C111.394 30.62 111.569 29.89 111.569 29.07C111.569 28.24 111.389 27.51 111.029 26.88C110.679 26.24 110.194 25.74 109.574 25.38C108.964 25.01 108.259 24.825 107.459 24.825C106.669 24.825 105.964 25.01 105.344 25.38C104.724 25.74 104.234 26.24 103.874 26.88C103.514 27.52 103.334 28.25 103.334 29.07C103.334 29.89 103.509 30.62 103.859 31.26C104.219 31.9 104.709 32.405 105.329 32.775C105.949 33.135 106.659 33.315 107.459 33.315Z" fill="white"/>
<path d="M121.484 36.75V21.39H126.089V23.595C126.659 22.735 127.354 22.075 128.174 21.615C129.004 21.145 129.894 20.91 130.844 20.91C131.384 20.91 131.944 20.99 132.524 21.15C133.104 21.31 133.589 21.515 133.979 21.765L132.059 25.65C131.719 25.42 131.319 25.24 130.859 25.11C130.409 24.97 129.989 24.9 129.599 24.9C128.999 24.9 128.429 25.055 127.889 25.365C127.349 25.675 126.914 26.08 126.584 26.58C126.254 27.07 126.089 27.6 126.089 28.17V36.75H121.484Z" fill="white"/>
<path d="M136.543 36.75V21.39H141.148V23.1C141.738 22.44 142.473 21.91 143.353 21.51C144.243 21.11 145.223 20.91 146.293 20.91C147.473 20.91 148.508 21.17 149.398 21.69C150.298 22.2 151.003 22.915 151.513 23.835C152.023 24.745 152.278 25.81 152.278 27.03V36.75H147.673V28.005C147.673 26.905 147.383 26.05 146.803 25.44C146.233 24.82 145.448 24.51 144.448 24.51C143.768 24.51 143.178 24.65 142.678 24.93C142.188 25.2 141.808 25.575 141.538 26.055C141.278 26.525 141.148 27.06 141.148 27.66V36.75H136.543Z" fill="white"/>
<path d="M157.386 36.75V21.39H161.992V36.75H157.386ZM159.697 18.195C159.197 18.195 158.736 18.075 158.316 17.835C157.906 17.585 157.576 17.25 157.326 16.83C157.076 16.41 156.951 15.95 156.951 15.45C156.951 14.95 157.076 14.495 157.326 14.085C157.576 13.675 157.906 13.35 158.316 13.11C158.736 12.86 159.197 12.735 159.697 12.735C160.197 12.735 160.651 12.86 161.061 13.11C161.472 13.35 161.796 13.675 162.036 14.085C162.286 14.495 162.411 14.95 162.411 15.45C162.411 15.95 162.286 16.41 162.036 16.83C161.796 17.25 161.472 17.585 161.061 17.835C160.651 18.075 160.197 18.195 159.697 18.195Z" fill="white"/>
<path d="M172.716 37.23C171.186 37.23 169.996 36.745 169.146 35.775C168.296 34.795 167.871 33.43 167.871 31.68V24.885H165.816V21.39H167.871V15.63H172.476V21.39H175.851V24.885H172.476V31.35C172.476 31.93 172.591 32.37 172.821 32.67C173.061 32.97 173.396 33.12 173.826 33.12C174.306 33.12 174.766 32.96 175.206 32.64L176.361 36.33C175.841 36.61 175.256 36.83 174.606 36.99C173.966 37.15 173.336 37.23 172.716 37.23Z" fill="white"/>
<path d="M4.34507 40.0179V14.7869C1.69076 14.7734 0 14.9619 0 14.9619V44.7331C0 44.7331 14.8805 43.0597 25.8795 50C16.7303 41.2337 4.34507 40.0179 4.34507 40.0179Z" fill="#2EB97E"/>
<path d="M15.6396 36.5814V11.2427C10.7582 9.22389 6.55859 8.54645 6.55859 8.54645V38.3176C6.55859 38.3176 20.6709 40.5832 27.2431 49.2642C25.3069 43.5801 15.6396 36.5814 15.6396 36.5814Z" fill="white"/>
<path d="M17.8477 5.40601V35.1772C17.8477 35.1772 26.3879 41.2337 29.1422 49.2463V22.6649C29.1422 9.34948 17.8477 5.40601 17.8477 5.40601Z" fill="#2EB97E"/>
<path d="M49.8914 37.537V14.5267C52.5457 14.5132 53.0002 14.7689 53.0002 14.7689V42.7097C53.0002 42.7097 39.406 40.5608 30.8613 50C37.2244 39.1835 49.8914 37.537 49.8914 37.537Z" fill="white"/>
<path d="M47.6819 6.15521V35.8995C47.6819 35.8995 31.8969 41.2337 29.1426 49.2463V22.6649C29.1426 9.34947 47.6819 6.15521 47.6819 6.15521Z" fill="#FAB123"/>
<path d="M30.8652 0L33.1696 4.16779L37.3919 6.44235L33.1696 8.7214L30.8652 12.8847L28.5563 8.7214L24.334 6.44235L28.5563 4.16779L30.8652 0Z" fill="#2EB97E"/>
</g>
<defs>
<clipPath id="clip0_6201_1210">
<rect width="177" height="50" fill="white"/>
</clipPath>
</defs>
</svg>
