<svg width="177" height="50" viewBox="0 0 177 50" fill="none" xmlns="http://www.w3.org/2000/svg">
<path d="M63.375 36.75V12H68.235V32.49H77.175V36.75H63.375Z" fill="#181818"/>
<path d="M87.8489 37.23C86.1889 37.23 84.6989 36.875 83.3789 36.165C82.0689 35.445 81.0289 34.47 80.2589 33.24C79.4889 32.01 79.1039 30.62 79.1039 29.07C79.1039 27.93 79.3189 26.865 79.7489 25.875C80.1889 24.885 80.7989 24.02 81.5789 23.28C82.3589 22.53 83.2639 21.95 84.2939 21.54C85.3239 21.12 86.4389 20.91 87.6389 20.91C89.2389 20.91 90.6389 21.245 91.8389 21.915C93.0489 22.575 93.9889 23.495 94.6589 24.675C95.3389 25.855 95.6789 27.23 95.6789 28.8C95.6789 28.93 95.6739 29.045 95.6639 29.145C95.6639 29.235 95.6489 29.41 95.6189 29.67H83.8439C83.8439 30.45 84.0189 31.13 84.3689 31.71C84.7289 32.29 85.2289 32.745 85.8689 33.075C86.5089 33.395 87.2539 33.555 88.1039 33.555C88.9039 33.555 89.6089 33.4 90.2189 33.09C90.8389 32.78 91.4339 32.285 92.0039 31.605L95.3189 33.27C94.5989 34.51 93.5789 35.48 92.2589 36.18C90.9389 36.88 89.4689 37.23 87.8489 37.23ZM84.0089 27.12H91.1489C91.0489 26.53 90.8339 26.02 90.5039 25.59C90.1839 25.16 89.7739 24.83 89.2739 24.6C88.7739 24.37 88.2089 24.255 87.5789 24.255C86.9089 24.255 86.3189 24.37 85.8089 24.6C85.2989 24.83 84.8889 25.16 84.5789 25.59C84.2689 26.02 84.0789 26.53 84.0089 27.12Z" fill="#181818"/>
<path d="M106.093 37.23C104.683 37.23 103.398 36.88 102.238 36.18C101.088 35.47 100.173 34.5 99.4927 33.27C98.8227 32.03 98.4877 30.62 98.4877 29.04C98.4877 27.5 98.8127 26.12 99.4627 24.9C100.113 23.67 101.008 22.7 102.148 21.99C103.298 21.27 104.613 20.91 106.093 20.91C107.183 20.91 108.198 21.12 109.138 21.54C110.088 21.95 110.863 22.525 111.463 23.265V21.39H116.068V36.75H111.463V34.725C110.763 35.535 109.958 36.155 109.048 36.585C108.138 37.015 107.153 37.23 106.093 37.23ZM107.458 33.315C108.258 33.315 108.968 33.135 109.588 32.775C110.208 32.405 110.693 31.9 111.043 31.26C111.393 30.62 111.568 29.89 111.568 29.07C111.568 28.24 111.388 27.51 111.028 26.88C110.678 26.24 110.193 25.74 109.573 25.38C108.963 25.01 108.258 24.825 107.458 24.825C106.668 24.825 105.963 25.01 105.343 25.38C104.723 25.74 104.233 26.24 103.873 26.88C103.513 27.52 103.333 28.25 103.333 29.07C103.333 29.89 103.508 30.62 103.858 31.26C104.218 31.9 104.708 32.405 105.328 32.775C105.948 33.135 106.658 33.315 107.458 33.315Z" fill="#181818"/>
<path d="M121.485 36.75V21.39H126.09V23.595C126.66 22.735 127.355 22.075 128.175 21.615C129.005 21.145 129.895 20.91 130.845 20.91C131.385 20.91 131.945 20.99 132.525 21.15C133.105 21.31 133.59 21.515 133.98 21.765L132.06 25.65C131.72 25.42 131.32 25.24 130.86 25.11C130.41 24.97 129.99 24.9 129.6 24.9C129 24.9 128.43 25.055 127.89 25.365C127.35 25.675 126.915 26.08 126.585 26.58C126.255 27.07 126.09 27.6 126.09 28.17V36.75H121.485Z" fill="#181818"/>
<path d="M136.543 36.75V21.39H141.148V23.1C141.738 22.44 142.473 21.91 143.353 21.51C144.243 21.11 145.223 20.91 146.293 20.91C147.473 20.91 148.508 21.17 149.398 21.69C150.298 22.2 151.003 22.915 151.513 23.835C152.023 24.745 152.278 25.81 152.278 27.03V36.75H147.673V28.005C147.673 26.905 147.383 26.05 146.803 25.44C146.233 24.82 145.448 24.51 144.448 24.51C143.768 24.51 143.178 24.65 142.678 24.93C142.188 25.2 141.808 25.575 141.538 26.055C141.278 26.525 141.148 27.06 141.148 27.66V36.75H136.543Z" fill="#181818"/>
<path d="M157.387 36.75V21.39H161.993V36.75H157.387ZM159.698 18.195C159.198 18.195 158.737 18.075 158.317 17.835C157.907 17.585 157.577 17.25 157.327 16.83C157.077 16.41 156.952 15.95 156.952 15.45C156.952 14.95 157.077 14.495 157.327 14.085C157.577 13.675 157.907 13.35 158.317 13.11C158.737 12.86 159.198 12.735 159.698 12.735C160.198 12.735 160.652 12.86 161.062 13.11C161.473 13.35 161.797 13.675 162.037 14.085C162.287 14.495 162.412 14.95 162.412 15.45C162.412 15.95 162.287 16.41 162.037 16.83C161.797 17.25 161.473 17.585 161.062 17.835C160.652 18.075 160.198 18.195 159.698 18.195Z" fill="#181818"/>
<path d="M172.717 37.23C171.187 37.23 169.997 36.745 169.147 35.775C168.297 34.795 167.872 33.43 167.872 31.68V24.885H165.817V21.39H167.872V15.63H172.477V21.39H175.852V24.885H172.477V31.35C172.477 31.93 172.592 32.37 172.822 32.67C173.062 32.97 173.397 33.12 173.827 33.12C174.307 33.12 174.767 32.96 175.207 32.64L176.362 36.33C175.842 36.61 175.257 36.83 174.607 36.99C173.967 37.15 173.337 37.23 172.717 37.23Z" fill="#181818"/>
<path d="M4.34507 40.0179V14.7869C1.69076 14.7734 0 14.9619 0 14.9619V44.7331C0 44.7331 14.8805 43.0597 25.8795 50C16.7303 41.2337 4.34507 40.0179 4.34507 40.0179Z" fill="#2EB97E"/>
<path d="M15.6394 36.5814V11.2427C10.758 9.22387 6.55835 8.54643 6.55835 8.54643V38.3176C6.55835 38.3176 20.6707 40.5832 27.2429 49.2642C25.3067 43.5801 15.6394 36.5814 15.6394 36.5814Z" fill="#181818"/>
<path d="M17.8481 5.40601V35.1772C17.8481 35.1772 26.3883 41.2337 29.1426 49.2463V22.6649C29.1426 9.34948 17.8481 5.40601 17.8481 5.40601Z" fill="#2EB97E"/>
<path d="M49.8912 37.537V14.5267C52.5455 14.5132 53 14.7689 53 14.7689V42.7097C53 42.7097 39.4058 40.5608 30.8611 50C37.2242 39.1835 49.8912 37.537 49.8912 37.537Z" fill="#181818"/>
<path d="M47.6816 6.15523V35.8995C47.6816 35.8995 31.8966 41.2337 29.1423 49.2463V22.6649C29.1423 9.34949 47.6816 6.15523 47.6816 6.15523Z" fill="#FAB123"/>
<path d="M30.8652 0L33.1696 4.16779L37.3919 6.44235L33.1696 8.7214L30.8652 12.8847L28.5563 8.7214L24.334 6.44235L28.5563 4.16779L30.8652 0Z" fill="#2EB97E"/>
</svg>
